<?xml version="1.0" standalone="no"?>
<!DOCTYPE svg PUBLIC "-//W3C//DTD SVG 20010904//EN"
 "http://www.w3.org/TR/2001/REC-SVG-20010904/DTD/svg10.dtd">
<svg version="1.0" xmlns="http://www.w3.org/2000/svg"
 width="700.000000pt" height="700.000000pt" viewBox="0 0 700.000000 700.000000"
 preserveAspectRatio="xMidYMid meet">
<metadata>
Created by potrace 1.14, written by Peter Selinger 2001-2017
</metadata>
<g transform="translate(0.000000,700.000000) scale(0.100000,-0.100000)"
fill="#000000" stroke="none">
<path d="M4530 6664 c-52 -7 -120 -15 -150 -19 -30 -3 -62 -8 -70 -10 -14 -4
-32 -8 -105 -20 -16 -3 -84 -17 -150 -32 -66 -14 -138 -29 -160 -34 -52 -11
-240 -60 -380 -99 -60 -17 -117 -32 -125 -34 -55 -15 -206 -61 -325 -99 l-140
-44 -47 -69 c-26 -38 -69 -112 -97 -164 -48 -92 -98 -226 -88 -236 2 -3 119
33 258 80 140 47 295 97 344 112 95 28 286 81 320 89 11 3 29 7 40 10 122 30
328 75 400 88 130 24 145 26 200 33 28 3 55 7 62 9 54 17 414 26 524 13 123
-15 247 -59 319 -112 89 -68 197 -246 225 -375 3 -11 8 -31 11 -43 12 -48 10
-205 -3 -276 -25 -133 -90 -283 -177 -412 -91 -135 -238 -288 -376 -393 -41
-31 -86 -65 -100 -75 -26 -20 -217 -132 -225 -132 -2 0 -28 -11 -57 -25 -158
-73 -198 -82 -423 -90 -115 -4 -228 -8 -250 -10 -22 -2 -92 -6 -155 -10 -63
-4 -133 -8 -155 -10 -22 -2 -85 -6 -140 -10 -55 -3 -116 -8 -135 -10 -19 -2
-75 -7 -125 -10 -49 -3 -108 -8 -130 -10 -22 -2 -76 -7 -120 -10 -44 -3 -100
-8 -125 -10 -25 -2 -76 -7 -115 -10 -38 -3 -82 -8 -97 -11 -20 -3 -28 0 -28
11 0 18 115 308 193 485 162 371 372 752 486 880 57 65 82 72 -299 -77 -185
-73 -301 -124 -312 -137 -27 -32 -179 -343 -247 -502 -123 -291 -317 -840
-471 -1334 -28 -91 -64 -205 -80 -255 -15 -49 -44 -142 -64 -205 -149 -482
-259 -830 -327 -1036 l-80 -241 -47 9 c-77 15 -408 17 -487 3 -158 -28 -244
-66 -269 -120 -20 -41 -20 -58 -2 -94 44 -83 264 -219 513 -316 40 -16 73 -34
73 -42 0 -7 -21 -59 -46 -114 -185 -414 -366 -650 -545 -713 -25 -8 -35 -15
-24 -16 11 -1 40 -3 65 -5 84 -6 245 -15 353 -20 l108 -5 91 45 c252 127 451
307 606 550 25 38 46 72 48 74 2 2 76 -15 166 -38 90 -22 174 -43 188 -45 14
-3 115 -23 225 -45 190 -37 224 -43 313 -57 20 -3 62 -9 92 -14 30 -5 75 -12
100 -15 25 -3 56 -8 70 -10 14 -2 54 -7 90 -11 36 -3 72 -8 82 -9 9 -2 51 -6
95 -10 43 -4 94 -8 113 -10 34 -3 168 -12 305 -20 87 -6 551 -5 625 0 30 2 96
7 145 10 50 3 104 8 120 10 17 2 53 7 80 10 168 18 391 57 515 91 174 48 248
72 365 117 411 159 704 385 925 712 167 247 287 568 326 870 10 77 13 359 4
407 -9 52 -31 166 -36 192 -11 55 -62 191 -100 264 -100 194 -271 378 -479
519 -134 90 -255 153 -415 216 -102 41 -312 107 -388 122 -179 36 -371 61
-469 60 -24 -1 -43 2 -43 5 0 3 55 33 123 67 426 216 773 466 947 682 19 24
40 48 45 55 58 64 146 235 181 352 23 76 27 109 27 224 3 290 -104 528 -320
712 -148 126 -393 211 -627 218 -33 0 -63 3 -66 5 -34 21 -355 27 -490 9z
m-70 -2655 c94 -2 256 -17 350 -33 605 -99 959 -382 1029 -821 14 -83 6 -306
-13 -390 -23 -104 -63 -239 -87 -293 -98 -220 -169 -343 -295 -512 -206 -277
-443 -455 -779 -585 -137 -52 -286 -96 -385 -111 -19 -3 -42 -7 -50 -9 -8 -3
-33 -7 -55 -10 -22 -3 -51 -8 -65 -10 -23 -4 -102 -12 -204 -21 -55 -5 -432
-5 -476 0 -19 2 -75 7 -124 11 -49 4 -98 8 -110 10 -11 2 -41 6 -66 9 -272 31
-695 125 -1013 226 -217 68 -209 64 -197 95 9 25 87 325 96 368 2 12 7 36 11
52 4 17 7 32 8 35 1 3 4 19 8 35 4 17 9 39 11 50 3 11 16 76 30 145 14 69 28
139 31 155 17 89 64 351 80 445 8 49 37 225 40 245 9 63 16 113 20 135 8 44
14 84 20 128 3 24 7 53 10 65 2 12 7 45 10 72 3 28 10 79 16 115 6 36 13 88
15 115 3 28 9 66 13 85 l7 35 88 12 c48 6 117 14 154 17 37 4 81 8 97 10 17 3
59 7 95 11 36 3 79 8 95 10 17 2 62 7 100 10 70 6 125 11 200 20 71 8 215 21
335 30 41 3 93 7 115 10 22 2 81 7 130 10 50 4 106 8 125 10 19 2 121 6 225
10 105 4 191 8 193 10 1 1 15 1 30 -1 15 -2 74 -4 132 -5z"/>
</g>
</svg>
